<!DOCTYPE svg PUBLIC "-//W3C//DTD SVG 1.1//EN" "http://www.w3.org/Graphics/SVG/1.1/DTD/svg11.dtd">
<!-- Uploaded to: SVG Repo, www.svgrepo.com, Transformed by: SVG Repo Mixer Tools -->
<svg height="161px" width="161px" version="1.1" id="Layer_1" xmlns="http://www.w3.org/2000/svg" xmlns:xlink="http://www.w3.org/1999/xlink" viewBox="-199.68 -199.68 911.36 911.36" xml:space="preserve" fill="#000000" transform="rotate(-45)matrix(1, 0, 0, -1, 0, 0)" stroke="#000000" stroke-width="20.991999999999997">
<g id="SVGRepo_bgCarrier" stroke-width="0" transform="translate(58.879999999999995,58.879999999999995), scale(0.77)">
<rect x="-199.68" y="-199.68" width="911.36" height="911.36" rx="455.68" fill="#7ed0ec" strokewidth="0"/>
</g>
<g id="SVGRepo_tracerCarrier" stroke-linecap="round" stroke-linejoin="round" stroke="#CCCCCC" stroke-width="39.936"> <path style="fill:#FFB656;" d="M455.506,0C486.657,0,512,25.343,512,56.494v399.011C512,486.657,486.657,512,455.506,512H56.494 C25.343,512,0,486.657,0,455.506V56.494C0,25.343,25.343,0,56.494,0H455.506z"/> <path style="fill:#FFA733;" d="M455.506,0h-33.874c31.151,0,56.494,25.343,56.494,56.494v399.011 c0,31.151-25.343,56.494-56.494,56.494h33.874C486.657,512,512,486.657,512,455.506V56.494C512,25.343,486.657,0,455.506,0z"/> <path style="fill:#ED8800;" d="M428.546,44.425c15.397,0,27.922,12.526,27.922,27.922v45.224c0,15.396-12.526,27.921-27.922,27.921 H83.454c-15.397,0-27.922-12.526-27.922-27.922V72.347c0-15.397,12.526-27.922,27.922-27.922H428.546z"/> <path style="fill:#CC7400;" d="M428.546,44.425h-34.837c15.396,0,27.922,12.526,27.922,27.922v45.224 c0,15.396-12.526,27.922-27.922,27.922h34.837c15.397-0.001,27.922-12.527,27.922-27.923V72.347 C456.469,56.951,443.943,44.425,428.546,44.425z"/> <g> <path style="fill:#ED8800;" d="M142.389,188.807c13.958,0,25.316,11.357,25.316,25.316v61.542 c0,13.958-11.357,25.316-25.316,25.316H80.847c-13.958,0-25.316-11.357-25.316-25.316v-61.542 c0-13.958,11.357-25.316,25.316-25.316H142.389z"/> <path style="fill:#ED8800;" d="M142.389,332.633c13.958,0,25.316,11.357,25.316,25.316v61.542 c0,13.958-11.357,25.316-25.316,25.316H80.847c-13.958,0-25.316-11.357-25.316-25.316v-61.542 c0-13.958,11.357-25.316,25.316-25.316H142.389z"/> </g> <g> <path style="fill:#CC7400;" d="M142.389,188.807l-33.874,0.278c13.958,0,25.316,11.357,25.316,25.316v61.542 c0,12.69-9.386,23.227-21.58,25.038h30.138c13.958,0,25.316-11.357,25.316-25.316v-61.542 C167.705,200.164,156.348,188.807,142.389,188.807z"/> <path style="fill:#CC7400;" d="M142.389,332.633l-33.874,0.278c13.958,0,25.316,11.357,25.316,25.316v61.542 c0,12.69-9.386,23.227-21.58,25.038h30.138c13.958,0,25.316-11.357,25.316-25.316v-61.542 C167.705,343.991,156.348,332.633,142.389,332.633z"/> </g> <g> <path style="fill:#ED8800;" d="M286.771,188.807c13.958,0,25.316,11.357,25.316,25.316v61.542 c0,13.958-11.357,25.316-25.316,25.316h-61.542c-13.958,0-25.316-11.357-25.316-25.316v-61.542 c0-13.958,11.357-25.316,25.316-25.316H286.771z"/> <path style="fill:#ED8800;" d="M431.153,188.807c13.958,0,25.316,11.357,25.316,25.316v205.924 c0,13.958-11.357,25.316-25.316,25.316h-61.542c-13.958,0-25.316-11.357-25.316-25.316V214.123 c0-13.958,11.357-25.316,25.316-25.316H431.153z"/> </g> <path style="fill:#CC7400;" d="M431.153,188.807h-32.764c13.958,0,25.316,11.357,25.316,25.316v205.924 c0,13.958-11.357,25.316-25.316,25.316h32.764c13.958,0,25.316-11.357,25.316-25.316V214.123 C456.469,200.164,445.111,188.807,431.153,188.807z"/> <path style="fill:#ED8800;" d="M286.771,332.633c13.958,0,25.316,11.357,25.316,25.316v61.542c0,13.958-11.357,25.316-25.316,25.316 h-61.542c-13.958,0-25.316-11.357-25.316-25.316v-61.542c0-13.958,11.357-25.316,25.316-25.316H286.771z"/> <g> <path style="fill:#CC7400;" d="M286.771,188.807h-34.43c13.958,0,25.316,11.357,25.316,25.316v61.542 c0,13.958-11.357,25.316-25.316,25.316h34.43c13.958,0,25.316-11.357,25.316-25.316v-61.542 C312.087,200.164,300.729,188.807,286.771,188.807z"/> <path style="fill:#CC7400;" d="M286.771,332.633h-34.43c13.958,0,25.316,11.357,25.316,25.316v61.542 c0,13.958-11.357,25.316-25.316,25.316h34.43c13.958,0,25.316-11.357,25.316-25.316v-61.542 C312.087,343.991,300.729,332.633,286.771,332.633z"/> <path style="fill:#CC7400;" d="M133.831,236.564h-13.883v-13.883c0-4.601-3.728-8.33-8.33-8.33s-8.33,3.728-8.33,8.33v13.883 H89.406c-4.601,0-8.33,3.728-8.33,8.33c0,4.601,3.728,8.33,8.33,8.33h13.883v13.883c0,4.601,3.728,8.33,8.33,8.33 s8.33-3.728,8.33-8.33v-13.883h13.883c4.601,0,8.33-3.728,8.33-8.33C142.161,240.292,138.432,236.564,133.831,236.564z"/> <path style="fill:#CC7400;" d="M133.216,367.678c-3.254-3.252-8.527-3.252-11.78,0l-9.817,9.817l-9.817-9.817 c-3.254-3.252-8.527-3.252-11.78,0c-3.253,3.254-3.253,8.527,0,11.78l9.817,9.817l-9.817,9.817c-3.253,3.254-3.253,8.527,0,11.78 c1.627,1.626,3.759,2.439,5.891,2.439c2.131,0,4.264-0.813,5.891-2.439l9.817-9.817l9.817,9.817 c1.627,1.626,3.759,2.439,5.891,2.439s4.264-0.813,5.891-2.439c3.253-3.254,3.253-8.527,0-11.78l-9.817-9.817l9.817-9.817 C136.469,376.204,136.469,370.931,133.216,367.678z"/> <path style="fill:#CC7400;" d="M278.213,236.564h-44.425c-4.601,0-8.33,3.728-8.33,8.33c0,4.601,3.728,8.33,8.33,8.33h44.425 c4.601,0,8.33-3.728,8.33-8.33C286.542,240.292,282.814,236.564,278.213,236.564z"/> <path style="fill:#CC7400;" d="M422.594,292.095h-44.425c-4.601,0-8.33,3.728-8.33,8.33s3.728,8.33,8.33,8.33h44.425 c4.601,0,8.33-3.728,8.33-8.33S427.196,292.095,422.594,292.095z"/> <path style="fill:#CC7400;" d="M422.594,325.414h-44.425c-4.601,0-8.33,3.728-8.33,8.33c0,4.601,3.728,8.33,8.33,8.33h44.425 c4.601,0,8.33-3.728,8.33-8.33C430.924,329.143,427.196,325.414,422.594,325.414z"/> <path style="fill:#CC7400;" d="M278.213,380.946h-44.425c-4.601,0-8.33,3.728-8.33,8.33c0,4.601,3.728,8.33,8.33,8.33h44.425 c4.601,0,8.33-3.728,8.33-8.33C286.542,384.674,282.814,380.946,278.213,380.946z"/> <circle style="fill:#CC7400;" cx="256" cy="367.063" r="11.106"/> <circle style="fill:#CC7400;" cx="256" cy="411.488" r="11.106"/> </g> </g>
<g id="SVGRepo_iconCarrier"> <path style="fill:#FFB656;" d="M455.506,0C486.657,0,512,25.343,512,56.494v399.011C512,486.657,486.657,512,455.506,512H56.494 C25.343,512,0,486.657,0,455.506V56.494C0,25.343,25.343,0,56.494,0H455.506z"/> <path style="fill:#FFA733;" d="M455.506,0h-33.874c31.151,0,56.494,25.343,56.494,56.494v399.011 c0,31.151-25.343,56.494-56.494,56.494h33.874C486.657,512,512,486.657,512,455.506V56.494C512,25.343,486.657,0,455.506,0z"/> <path style="fill:#ED8800;" d="M428.546,44.425c15.397,0,27.922,12.526,27.922,27.922v45.224c0,15.396-12.526,27.921-27.922,27.921 H83.454c-15.397,0-27.922-12.526-27.922-27.922V72.347c0-15.397,12.526-27.922,27.922-27.922H428.546z"/> <path style="fill:#CC7400;" d="M428.546,44.425h-34.837c15.396,0,27.922,12.526,27.922,27.922v45.224 c0,15.396-12.526,27.922-27.922,27.922h34.837c15.397-0.001,27.922-12.527,27.922-27.923V72.347 C456.469,56.951,443.943,44.425,428.546,44.425z"/> <g> <path style="fill:#ED8800;" d="M142.389,188.807c13.958,0,25.316,11.357,25.316,25.316v61.542 c0,13.958-11.357,25.316-25.316,25.316H80.847c-13.958,0-25.316-11.357-25.316-25.316v-61.542 c0-13.958,11.357-25.316,25.316-25.316H142.389z"/> <path style="fill:#ED8800;" d="M142.389,332.633c13.958,0,25.316,11.357,25.316,25.316v61.542 c0,13.958-11.357,25.316-25.316,25.316H80.847c-13.958,0-25.316-11.357-25.316-25.316v-61.542 c0-13.958,11.357-25.316,25.316-25.316H142.389z"/> </g> <g> <path style="fill:#CC7400;" d="M142.389,188.807l-33.874,0.278c13.958,0,25.316,11.357,25.316,25.316v61.542 c0,12.69-9.386,23.227-21.58,25.038h30.138c13.958,0,25.316-11.357,25.316-25.316v-61.542 C167.705,200.164,156.348,188.807,142.389,188.807z"/> <path style="fill:#CC7400;" d="M142.389,332.633l-33.874,0.278c13.958,0,25.316,11.357,25.316,25.316v61.542 c0,12.69-9.386,23.227-21.58,25.038h30.138c13.958,0,25.316-11.357,25.316-25.316v-61.542 C167.705,343.991,156.348,332.633,142.389,332.633z"/> </g> <g> <path style="fill:#ED8800;" d="M286.771,188.807c13.958,0,25.316,11.357,25.316,25.316v61.542 c0,13.958-11.357,25.316-25.316,25.316h-61.542c-13.958,0-25.316-11.357-25.316-25.316v-61.542 c0-13.958,11.357-25.316,25.316-25.316H286.771z"/> <path style="fill:#ED8800;" d="M431.153,188.807c13.958,0,25.316,11.357,25.316,25.316v205.924 c0,13.958-11.357,25.316-25.316,25.316h-61.542c-13.958,0-25.316-11.357-25.316-25.316V214.123 c0-13.958,11.357-25.316,25.316-25.316H431.153z"/> </g> <path style="fill:#CC7400;" d="M431.153,188.807h-32.764c13.958,0,25.316,11.357,25.316,25.316v205.924 c0,13.958-11.357,25.316-25.316,25.316h32.764c13.958,0,25.316-11.357,25.316-25.316V214.123 C456.469,200.164,445.111,188.807,431.153,188.807z"/> <path style="fill:#ED8800;" d="M286.771,332.633c13.958,0,25.316,11.357,25.316,25.316v61.542c0,13.958-11.357,25.316-25.316,25.316 h-61.542c-13.958,0-25.316-11.357-25.316-25.316v-61.542c0-13.958,11.357-25.316,25.316-25.316H286.771z"/> <g> <path style="fill:#CC7400;" d="M286.771,188.807h-34.43c13.958,0,25.316,11.357,25.316,25.316v61.542 c0,13.958-11.357,25.316-25.316,25.316h34.43c13.958,0,25.316-11.357,25.316-25.316v-61.542 C312.087,200.164,300.729,188.807,286.771,188.807z"/> <path style="fill:#CC7400;" d="M286.771,332.633h-34.43c13.958,0,25.316,11.357,25.316,25.316v61.542 c0,13.958-11.357,25.316-25.316,25.316h34.43c13.958,0,25.316-11.357,25.316-25.316v-61.542 C312.087,343.991,300.729,332.633,286.771,332.633z"/> <path style="fill:#CC7400;" d="M133.831,236.564h-13.883v-13.883c0-4.601-3.728-8.33-8.33-8.33s-8.33,3.728-8.33,8.33v13.883 H89.406c-4.601,0-8.33,3.728-8.33,8.33c0,4.601,3.728,8.33,8.33,8.33h13.883v13.883c0,4.601,3.728,8.33,8.33,8.33 s8.33-3.728,8.33-8.33v-13.883h13.883c4.601,0,8.33-3.728,8.33-8.33C142.161,240.292,138.432,236.564,133.831,236.564z"/> <path style="fill:#CC7400;" d="M133.216,367.678c-3.254-3.252-8.527-3.252-11.78,0l-9.817,9.817l-9.817-9.817 c-3.254-3.252-8.527-3.252-11.78,0c-3.253,3.254-3.253,8.527,0,11.78l9.817,9.817l-9.817,9.817c-3.253,3.254-3.253,8.527,0,11.78 c1.627,1.626,3.759,2.439,5.891,2.439c2.131,0,4.264-0.813,5.891-2.439l9.817-9.817l9.817,9.817 c1.627,1.626,3.759,2.439,5.891,2.439s4.264-0.813,5.891-2.439c3.253-3.254,3.253-8.527,0-11.78l-9.817-9.817l9.817-9.817 C136.469,376.204,136.469,370.931,133.216,367.678z"/> <path style="fill:#CC7400;" d="M278.213,236.564h-44.425c-4.601,0-8.33,3.728-8.33,8.33c0,4.601,3.728,8.33,8.33,8.33h44.425 c4.601,0,8.33-3.728,8.33-8.33C286.542,240.292,282.814,236.564,278.213,236.564z"/> <path style="fill:#CC7400;" d="M422.594,292.095h-44.425c-4.601,0-8.33,3.728-8.33,8.33s3.728,8.33,8.33,8.33h44.425 c4.601,0,8.33-3.728,8.33-8.33S427.196,292.095,422.594,292.095z"/> <path style="fill:#CC7400;" d="M422.594,325.414h-44.425c-4.601,0-8.33,3.728-8.33,8.33c0,4.601,3.728,8.33,8.33,8.33h44.425 c4.601,0,8.33-3.728,8.33-8.33C430.924,329.143,427.196,325.414,422.594,325.414z"/> <path style="fill:#CC7400;" d="M278.213,380.946h-44.425c-4.601,0-8.33,3.728-8.33,8.33c0,4.601,3.728,8.33,8.33,8.33h44.425 c4.601,0,8.33-3.728,8.33-8.33C286.542,384.674,282.814,380.946,278.213,380.946z"/> <circle style="fill:#CC7400;" cx="256" cy="367.063" r="11.106"/> <circle style="fill:#CC7400;" cx="256" cy="411.488" r="11.106"/> </g> </g>
</svg>